#!OML:ASF F:\VICON\USERDATA\INSTALL\rory3\rory3.ASF
:FULLY-SPECIFIED
:DEGREES
1506
root 1.75287 9.84154 -4.86336 170.679 129.482 184.477
lowerback 28.8187 -0.22216 -4.69121
upperback 12.4116 -0.812011 -0.192332
thorax -1.83262 -0.287919 2.70336
lowerneck -21.1818 -10.1665 -15.6142
upperneck 6.79 -10.8828 11.7381
head 6.97571 -4.76525 4.93134
rclavicle 1.6847e-014 1.16041e-014
rhumerus -22.6812 23.5199 -87.1832
rradius 98.798
rwrist 42.8641
rhand -39.9771 13.6039
rfingers 7.12502
rthumb -12.9457 -15.9745
lclavicle 1.6847e-014 1.16041e-014
lhumerus -22.8268 -13.7364 87.3379
lradius 94.1511
lwrist -30.609
lhand -39.5484 26.684
lfingers 7.12502
lthumb -12.5324 56.2881
rfemur -81.6729 -14.1376 19.0113
rtibia 109.9
rfoot -9.88362 4.69755
rtoes -7.06713
lfemur -79.4717 16.6393 -19.7809
ltibia 108.381
lfoot -12.59 -12.1517
ltoes -6.17643
1507
root 1.75173 9.84115 -4.86254 170.671 129.401 184.541
lowerback 28.8804 -0.184261 -4.65697
upperback 12.4322 -0.754693 -0.216525
thorax -1.84334 -0.255521 2.6411
lowerneck -21.3412 -10.0915 -15.4958
upperneck 6.92301 -10.7918 11.6894
head 7.02215 -4.717 4.90696
rclavicle -3.17062e-014 3.75952e-014
rhumerus -22.7473 23.2226 -87.1212
rradius 98.8984
rwrist 42.9126
rhand -39.8969 13.8017
rfingers 7.12502
rthumb -12.8684 -15.7816
lclavicle -3.17062e-014 3.75952e-014
lhumerus -22.8406 -13.994 87.3482
lradius 94.178
lwrist -30.5502
lhand -39.6246 26.5792
lfingers 7.12502
lthumb -12.6059 56.1788
rfemur -81.6255 -14.2567 18.9495
rtibia 109.921
rfoot -9.88968 4.74494
rtoes -6.52794
lfemur -79.4198 16.6137 -19.8451
ltibia 108.377
lfoot -12.5872 -12.1999
ltoes -6.20386
1508
root 1.7512 9.84009 -4.86208 170.647 129.341 184.533
lowerback 28.8709 -0.147553 -4.64215
upperback 12.4871 -0.694268 -0.154219
thorax -1.78057 -0.22753 2.6831
lowerneck -21.6828 -10.0645 -15.6815
upperneck 7.14682 -10.6676 11.7168
head 7.14304 -4.64903 4.9559
rclavicle -3.91109e-014 8.96022e-014
rhumerus -22.7177 23.1069 -86.965
rradius 98.9699
rwrist 42.8636
rhand -39.9238 13.5904
rfingers 7.12502
rthumb -12.8943 -15.9912
lclavicle -3.91109e-014 8.96022e-014
lhumerus -22.6988 -14.1375 87.4528
lradius 94.1558
lwrist -30.4053
lhand -39.5803 26.5469
lfingers 7.12502
lthumb -12.5631 56.1492
rfemur -81.6157 -14.3546 18.9577
rtibia 109.935
rfoot -9.93244 4.74782
rtoes -6.56744
lfemur -79.43 16.5899 -19.8602
ltibia 108.384
lfoot -12.5539 -12.246
ltoes -6.05966
1509
root 1.75163 9.83922 -4.86239 170.555 129.341 184.375
lowerback 28.7783 -0.153498 -4.54196
upperback 12.5112 -0.669476 -0.122092
thorax -1.71589 -0.214498 2.65275
lowerneck -21.7921 -9.95201 -15.7329
upperneck 7.2217 -10.4923 11.7455
head 7.16552 -4.56086 4.99938
rclavicle -2.01766e-014 1.31198e-014
rhumerus -22.768 23.0703 -86.986
rradius 98.9823
rwrist 42.8254
rhand -40.0102 13.4428
rfingers 7.12502
rthumb -12.9776 -16.1335
lclavicle -2.01766e-014 1.31198e-014
lhumerus -22.4825 -14.1718 87.4223
lradius 94.0047
lwrist -30.2555
lhand -39.5569 26.5175
lfingers 7.12502
lthumb -12.5406 56.1211
rfemur -81.637 -14.3595 19.0765
rtibia 109.934
rfoot -9.96972 4.73668
rtoes -6.64313
lfemur -79.5031 16.6344 -19.7937
ltibia 108.394
lfoot -12.536 -12.2755
ltoes -6.01633
1510
root 1.75228 9.83852 -4.86197 170.607 129.367 184.398
lowerback 28.7094 -0.123015 -4.5294
upperback 12.5034 -0.626883 -0.135648
thorax -1.6975 -0.193392 2.61775
lowerneck -21.8014 -9.86424 -15.7549
upperneck 7.29316 -10.3767 11.7799
head 7.17842 -4.50364 5.0329
rclavicle -2.99916e-014 3.9906e-014
rhumerus -22.8626 22.9953 -86.9832
rradius 99.0255
rwrist 42.7376
rhand -40.0306 13.4752
rfingers 7.12502
rthumb -12.9973 -16.1
lclavicle -2.99916e-014 3.9906e-014
lhumerus -22.294 -14.2617 87.3827
lradius 93.8373
lwrist -30.0935
lhand -39.5001 26.3883
lfingers 7.12502
lthumb -12.4859 55.9953
rfemur -81.6863 -14.3337 19.0795
rtibia 109.945
rfoot -9.95198 4.75098
rtoes -6.85272
lfemur -79.5491 16.6955 -19.8402
ltibia 108.385
lfoot -12.5144 -12.2754
ltoes -6.04336
1511
root 1.75232 9.83852 -4.8615 170.657 129.321 184.479
lowerback 28.6501 -0.122452 -4.56378
upperback 12.5537 -0.627677 -0.146754
thorax -1.61239 -0.196151 2.62456
lowerneck -21.9109 -9.80065 -15.8118
upperneck 7.38641 -10.2697 11.8218
head 7.21725 -4.44738 5.07082
rclavicle 3.94588e-014 -1.83379e-014
rhumerus -22.8417 22.9867 -86.9136
rradius 99.1032
rwrist 42.6267
rhand -40.0478 13.4566
rfingers 7.12502
rthumb -13.0139 -16.1175
lclavicle 3.94588e-014 -1.83379e-014
lhumerus -22.1274 -14.2992 87.3185
lradius 93.7815
lwrist -29.9272
lhand -39.4563 26.2815
lfingers 7.12502
lthumb -12.4436 55.8911
rfemur -81.6821 -14.409 19.0221
rtibia 109.959
rfoot -9.95596 4.80833
rtoes -7.28319
lfemur -79.5174 16.6542 -19.904
ltibia 108.362
lfoot -12.5472 -12.2769
ltoes -6.282
1512
root 1.75046 9.83871 -4.86232 170.747 129.208 184.658
lowerback 28.6143 -0.118884 -4.66719
upperback 12.6415 -0.637331 -0.145657
thorax -1.49207 -0.206299 2.68679
lowerneck -21.9029 -9.72739 -15.7504
upperneck 7.2535 -10.1572 11.6894
head 7.14446 -4.4022 5.0347
rclavicle -8.7341e-014 3.81667e-014
rhumerus -22.7344 23.031 -86.761
rradius 99.1682
rwrist 42.4748
rhand -40.065 13.4122
rfingers 7.12502
rthumb -13.0304 -16.1608
lclavicle -8.7341e-014 3.81667e-014
lhumerus -21.8855 -14.35 87.3468
lradius 93.683
lwrist -29.8643
lhand -39.5142 26.3953
lfingers 7.12502
lthumb -12.4995 56.0015
rfemur -81.6521 -14.5643 18.8754
rtibia 109.985
rfoot -9.99924 4.86555
rtoes -7.17624
lfemur -79.4541 16.5448 -20.0553
ltibia 108.337
lfoot -12.5535 -12.2368
ltoes -6.37108
